# AST/ASF file generated using VICON BodyLanguage
# -----------------------------------------------
:version 1.10
:name VICON
:units
  mass 1.0
  length 0.45
  angle deg
:documentation
   .ast/.asf automatically generated from VICON data using
   VICON BodyBuilder and BodyLanguage model FoxedUp or BRILLIANT.MOD
:root
   order TX TY TZ RX RY RZ
   axis XYZ
   position 0 0 0  
   orientation 0 0 0 
:bonedata
  begin
     id 1 
     name lhipjoint
     direction 0.584852 -0.759097 0.285867 
     length 2.43633 
     axis 0 0 0  XYZ
  end
  begin
     id 2 
     name lfemur
     direction 0.34202 -0.939693 0  
     length 7.14704  
     axis 0 0 20  XYZ
    dof rx ry rz
    limits (-160.0 20.0)
           (-70.0 70.0)
           (-60.0 70.0)
  end
  begin
     id 3 
     name ltibia
     direction 0.342022 -0.939692 0   
     length 7.68483   
     axis 0 0 20   XYZ
    dof rx
    limits (-10.0 170.0)
  end
  begin
     id 4 
     name lfoot
     direction 0.0999605 -0.274639 0.956337   
     length 2.40452   
     axis -90 7.62852e-016 20   XYZ
    dof rx rz
    limits (-45.0 90.0)
           (-70.0 20.0)
  end
  begin
     id 5 
     name ltoes
     direction 1.53468e-011 -4.21881e-011 1   
     length 1.19837   
     axis -90 7.62852e-016 20   XYZ
    dof rx
    limits (-90.0 20.0)
  end
  begin
     id 6 
     name rhipjoint
     direction -0.569886 -0.769002 0.289597   
     length 2.40495  
     axis 0 0 0  XYZ 
  end
  begin
     id 7 
     name rfemur
     direction -0.34202 -0.939693 0   
     length 7.45086   
     axis 0 0 -20   XYZ
    dof rx ry rz
    limits (-160.0 20.0)
           (-70.0 70.0)
           (-70.0 60.0)
  end
  begin
     id 8 
     name rtibia
     direction -0.34202 -0.939693 0   
     length 7.76831   
     axis 0 0 -20   XYZ
    dof rx
    limits (-10.0 170.0)
 end
 begin
     id 9 
     name rfoot
     direction -0.0798572 -0.219406 0.97236   
     length 2.35911  
     axis -90 -7.62852e-016 -20   XYZ
    dof rx rz
    limits (-45.0 90.0)
           (-20.0 70.0)
  end
  begin
     id 10 
     name rtoes
     direction -1.53469e-011 -4.21728e-011 1   
     length 1.18261   
     axis -90 -7.62852e-016 -20   XYZ
    dof rx
    limits (-90.0 20.0)
  end
  begin
     id 11 
     name lowerback
     direction 0.0242088 0.999437 0.0232389   
     length 2.1561   
     axis 0 0 0   XYZ
    dof rx ry rz
    limits (-20.0 45.0)
           (-30.0 30.0)
           (-30.0 30.0)
  end
  begin
     id 12 
     name upperback
     direction -0.0356893 0.999013 -0.0264323   
     length 2.14431   
     axis 0 0 0   XYZ
    dof rx ry rz
    limits (-20.0 45.0)
           (-30.0 30.0)
           (-30.0 30.0)
  end
  begin
     id 13 
     name thorax
     direction -0.0472163 0.998194 -0.0371284   
     length 2.16169   
     axis 0 0 0   XYZ
    dof rx ry rz
    limits (-20.0 45.0)
           (-30.0 30.0)
           (-30.0 30.0)
  end
  begin
     id 14 
     name lowerneck
     direction 0.00863244 0.999921 0.00911972   
     length 1.58651   
     axis 0 0 0   XYZ
    dof rx ry rz
    limits (-20.0 45.0)
           (-30.0 30.0)
           (-30.0 30.0)
  end
  begin
     id 15 
     name upperneck
     direction 0.149523 0.979068 -0.138086   
     length 1.57486   
     axis 0 0 0   XYZ
    dof rx ry rz
    limits (-20.0 45.0)
           (-30.0 30.0)
           (-30.0 30.0)
  end
  begin
     id 16
     name head
     direction 0.0445219 0.997708 -0.0509576  
     length 1.6019  
     axis 0 0 0   XYZ
    dof rx ry rz
    limits (-20.0 45.0)
           (-30.0 30.0)
           (-30.0 30.0)
  end
  begin
     id 17 
     name lclavicle
     direction 0.911271 0.381667 -0.154644  
     length 3.80848  
     axis 0 0 0   XYZ
    dof ry rz
    limits (-20.0 10.0)
           (0.0 20.0)
  end
  begin
     id 18 
     name lhumerus
     direction 1 -4.49003e-011 2.1308e-027   
     length 5.19069   
     axis 180 -30 -90   XYZ
    dof rx ry rz
    limits (-60.0 90.0)
           (-90.0 90.0)
           (-90.0 90.0)
  end
  begin
     id 19
     name lradius
     direction 1 -4.48914e-011 4.01554e-027   
     length 3.30016   
     axis 180 -30 -90   XYZ
    dof rx
    limits (-10.0 170.0)
  end
  begin
     id 20
     name lwrist
     direction 1 -4.49003e-011 1.1934e-026   
     length 1.65008   
     axis -8.46377e-015 90 90   XYZ
    dof ry
    limits (-180.0 0.0)
 end
  begin
     id 21 
     name lhand
     direction 1 -4.49034e-011 2.38659e-026   
     length 0.707698   
     axis -1.52313e-014 90 90   XYZ
    dof rx rz
    limits (-90.0 90.0)
           (-45.0 45.0)
  end
  begin
     id 22 
     name lfingers
     direction 1 -4.48691e-011 4.77775e-026   
     length 0.570564   
     axis -3.04623e-014 90 90   XYZ
    dof rx
    limits (0.0 90.0)
  end
  begin
     id 23
     name lthumb
     direction 0.707107 -6.34832e-011 0.707107   
     length 0.819219   
     axis -90 45 -1.62303e-014   XYZ
    dof rx rz
    limits (-45.0 45.0)
           (-45.0 45.0)
  end
  begin
     id 24 
     name rclavicle
     direction -0.815579 0.573708 -0.0754329   
     length 3.54371  
     axis 0 0 0   XYZ 
    dof ry rz
    limits (-10.0 20.0)
           (-20.0 0.0)
  end
  begin
     id 25 
     name rhumerus
     direction -1 -4.48956e-011 3.05351e-028  
     length 5.23924   
     axis 180 30 90   XYZ
    dof rx ry rz
    limits (-90.0 60.0)
           (-90.0 90.0)
           (-90.0 90.0)
  end
  begin
     id 26 
     name rradius
     direction -1 -4.49013e-011 3.53849e-027   
     length 3.32953   
     axis 180 30 90   XYZ
    dof rx
    limits (-10.0 170.0)
  end
  begin
     id 27 
     name rwrist
     direction -1 -4.48901e-011 1.19374e-026   
     length 1.66477   
     axis -8.46377e-015 -90 -90   XYZ
    dof ry
    limits (-180.0 0.0)
  end
  begin
     id 28
     name rhand
     direction -1 -4.48877e-011 2.38764e-026   
     length 0.607414   
     axis -1.52313e-014 -90 -90   XYZ
    dof rx rz
    limits (-90.0 90.0)
           (-45.0 45.0)
  end
  begin
     id 29
     name rfingers
     direction -1 -4.48882e-011 4.77521e-026   
     length 0.489712   
     axis -3.04623e-014 -90 -90   XYZ
    dof rx
    limits (0.0 90.0)
  end
  begin
     id 30
     name rthumb
     direction -0.707107 -6.34974e-011 0.707107   
     length 0.703132   
     axis -90 -45 1.62303e-014   XYZ
    dof rx rz
    limits (-45.0 45.0)
           (-45.0 45.0)
  end
:hierarchy
  begin
    root lhipjoint rhipjoint lowerback
    lhipjoint lfemur
    lfemur ltibia
    ltibia lfoot
    lfoot ltoes
    rhipjoint rfemur
    rfemur rtibia
    rtibia rfoot
    rfoot rtoes
    lowerback upperback
    upperback thorax
    thorax lowerneck lclavicle rclavicle
    lowerneck upperneck
    upperneck head
    lclavicle lhumerus
    lhumerus lradius
    lradius lwrist
    lwrist lhand lthumb
    lhand lfingers
    rclavicle rhumerus
    rhumerus rradius
    rradius rwrist
    rwrist rhand rthumb
    rhand rfingers
  end

#!OML:ASF E:\VariousWalksJay\Project 1\Capture day 1\Session 1\Actor2.ASF
:FULLY-SPECIFIED
:DEGREES
414
root 17.2952 15.5784 -13.6309 12.9186 -30.7196 -8.49757
lowerback 18.6384 -1.72946 8.11211
upperback 13.2549 -1.4978 -0.511347
thorax 3.83025 -0.332599 -4.90154
lowerneck 7.01356 -0.408559 -1.66635
upperneck -16.5125 0.757275 9.88468
head -6.18765 -0.345185 3.38067
rclavicle -5.60573e-014 2.10712e-014
rhumerus -44.8075 27.5074 -89.5293
rradius 63.8627
rwrist 4.44516
rhand -8.37754 -12.1263
rfingers 7.12502
rthumb 17.5455 -41.3546
lclavicle -5.60573e-014 2.10712e-014
lhumerus 18.2779 -21.7035 64.6029
lradius 74.2832
lwrist 83.0384
lhand -40.6707 1.21771
lfingers 7.12502
lthumb -13.6143 30.7525
rfemur -29.3752 -3.63846 35.9251
rtibia 68.5996
rfoot -36.374 -15.3148
rtoes -21.6081
lfemur -55.0451 4.71694 -15.5121
ltibia 30.4037
lfoot -21.5226 10.0804
ltoes -19.2197
415
root 17.2698 15.5827 -13.5634 13.0662 -30.6514 -8.58886
lowerback 18.6176 -1.78437 8.24197
upperback 13.2556 -1.55268 -0.515342
thorax 3.83562 -0.350809 -4.97094
lowerneck 7.00122 -0.393696 -1.64894
upperneck -16.5621 0.782133 9.87737
head -6.20271 -0.335123 3.37456
rclavicle -1.2921e-013 3.69739e-014
rhumerus -44.782 27.4418 -89.5301
rradius 63.9431
rwrist 4.45021
rhand -8.37621 -12.128
rfingers 7.12502
rthumb 17.5468 -41.3561
lclavicle -1.2921e-013 3.69739e-014
lhumerus 18.2891 -21.6424 64.4662
lradius 74.2358
lwrist 83.03
lhand -40.6852 1.19724
lfingers 7.12502
lthumb -13.6283 30.7311
rfemur -29.126 -3.77283 35.9492
rtibia 68.4486
rfoot -36.39 -15.2693
rtoes -22.0001
lfemur -55.4095 4.79254 -15.5512
ltibia 31.2507
lfoot -21.5827 9.84938
ltoes -19.0407
416
root 17.2447 15.5871 -13.4949 13.1891 -30.5761 -8.68528
lowerback 18.6158 -1.8421 8.38259
upperback 13.2615 -1.6086 -0.51528
thorax 3.83709 -0.369147 -5.04163
lowerneck 6.97641 -0.382526 -1.61875
upperneck -16.591 0.800614 9.86222
head -6.20866 -0.32739 3.36365
rclavicle 4.8901e-014 -1.03368e-014
rhumerus -44.7687 27.3961 -89.5365
rradius 63.9914
rwrist 4.45737
rhand -8.36563 -12.1288
rfingers 7.12502
rthumb 17.557 -41.3561
lclavicle 4.8901e-014 -1.03368e-014
lhumerus 18.3185 -21.5668 64.3551
lradius 74.1573
lwrist 83.0326
lhand -40.7215 1.08256
lfingers 7.12502
lthumb -13.6633 30.6141
rfemur -28.847 -3.90816 35.9639
rtibia 68.3057
rfoot -36.3946 -15.181
rtoes -22.3974
lfemur -55.7434 4.86984 -15.5907
ltibia 32.1057
lfoot -21.6493 9.62834
ltoes -18.8686
417
root 17.2196 15.5913 -13.4249 13.293 -30.519 -8.77065
lowerback 18.6132 -1.89289 8.50601
upperback 13.2705 -1.65839 -0.513763
thorax 3.8431 -0.385453 -5.10205
lowerneck 6.94952 -0.369353 -1.5922
upperneck -16.6084 0.820618 9.84752
head -6.21068 -0.318282 3.35314
rclavicle 8.34896e-015 -3.61788e-014
rhumerus -44.7712 27.3811 -89.5448
rradius 64.0133
rwrist 4.4605
rhand -8.34365 -12.1321
rfingers 7.12502
rthumb 17.5782 -41.3575
lclavicle 8.34896e-015 -3.61788e-014
lhumerus 18.3615 -21.4772 64.2672
lradius 74.0533
lwrist 83.0537
lhand -40.7783 0.957235
lfingers 7.12502
lthumb -13.718 30.4851
rfemur -28.551 -4.02121 35.9456
rtibia 68.179
rfoot -36.3857 -15.0364
rtoes -22.8095
lfemur -56.0553 4.96251 -15.6472
ltibia 32.9662
lfoot -21.7215 9.42493
ltoes -18.7152
418
root 17.1945 15.5947 -13.354 13.3928 -30.4774 -8.84275
lowerback 18.6014 -1.93246 8.6006
upperback 13.2766 -1.69834 -0.506093
thorax 3.85148 -0.399014 -5.14117
lowerneck 6.91737 -0.355029 -1.56536
upperneck -16.6147 0.840584 9.82788
head -6.20825 -0.308314 3.3407
rclavicle -6.36111e-014 4.05521e-014
rhumerus -44.7993 27.3944 -89.5519
rradius 64.0197
rwrist 4.45376
rhand -8.31481 -12.1338
rfingers 7.12502
rthumb 17.6059 -41.3566
lclavicle -6.36111e-014 4.05521e-014
lhumerus 18.408 -21.3809 64.2138
lradius 73.9339
lwrist 83.0832
lhand -40.8261 0.859184
lfingers 7.12502
lthumb -13.764 30.3839
rfemur -28.2603 -4.10384 35.8959
rtibia 68.0736
rfoot -36.3634 -14.8323
rtoes -23.2352
lfemur -56.3671 5.07137 -15.7234
ltibia 33.8294
lfoot -21.7846 9.23202
ltoes -18.5877
419
root 17.1691 15.5973 -13.2813 13.4836 -30.4541 -8.89852
lowerback 18.5786 -1.96035 8.66787
upperback 13.28 -1.72784 -0.493891
thorax 3.86367 -0.40927 -5.16176
lowerneck 6.88922 -0.340443 -1.54038
upperneck -16.6186 0.859889 9.80396
head -6.2057 -0.298196 3.32722
rclavicle 5.56597e-015 -4.77083e-014
rhumerus -44.8535 27.4316 -89.5564
rradius 64.0081
rwrist 4.4339
rhand -8.28794 -12.1354
rfingers 7.12502
rthumb 17.6318 -41.3559
lclavicle 5.56597e-015 -4.77083e-014
lhumerus 18.4531 -21.2887 64.1922
lradius 73.8101
lwrist 83.1212
lhand -40.8686 0.809099
lfingers 7.12502
lthumb -13.805 30.331
rfemur -27.9673 -4.15895 35.8068
rtibia 67.9895
rfoot -36.3214 -14.5823
rtoes -23.7468
lfemur -56.6712 5.1887 -15.818
ltibia 34.6934
lfoot -21.8376 9.0518
ltoes -18.488
420
root 17.1433 15.5988 -13.2075 13.5775 -30.4223 -8.9409
lowerback 18.537 -1.98231 8.71585
upperback 13.2779 -1.75348 -0.474151
thorax 3.87959 -0.419053 -5.16417
lowerneck 6.86383 -0.327135 -1.50918
upperneck -16.625 0.878072 9.77749
head -6.20439 -0.288963 3.31203
rclavicle -5.1684e-014 -1.39149e-014
rhumerus -44.9334 27.4786 -89.5597
rradius 63.9855
rwrist 4.40403
rhand -8.26095 -12.1373
rfingers 7.12502
rthumb 17.6577 -41.3555
lclavicle -5.1684e-014 -1.39149e-014
lhumerus 18.4963 -21.2187 64.1927
lradius 73.6982
lwrist 83.1646
lhand -40.9012 0.786739
lfingers 7.12502
lthumb -13.8364 30.3065
rfemur -27.6884 -4.20295 35.6925
rtibia 67.9259
rfoot -36.2644 -14.2887
rtoes -24.337
lfemur -56.9879 5.30017 -15.9285
ltibia 35.5566
lfoot -21.8711 8.86462
ltoes -18.4181
421
root 17.117 15.599 -13.1321 13.6802 -30.3991 -8.98044
lowerback 18.4696 -1.99553 8.75393
upperback 13.2729 -1.77143 -0.451575
thorax 3.90641 -0.42529 -5.15959
lowerneck 6.84081 -0.314297 -1.47473
upperneck -16.6344 0.896172 9.7504
head -6.20441 -0.280078 3.29618
rclavicle 2.5842e-014 -1.86858e-014
rhumerus -45.0335 27.533 -89.5659
rradius 63.9503
rwrist 4.36751
rhand -8.23667 -12.1398
rfingers 7.12502
rthumb 17.6811 -41.3559
lclavicle 2.5842e-014 -1.86858e-014
lhumerus 18.5369 -21.1674 64.206
lradius 73.603
lwrist 83.2085
lhand -40.9087 0.861862
lfingers 7.12502
lthumb -13.8436 30.3812
rfemur -27.4165 -4.22468 35.5562
rtibia 67.878
rfoot -36.1937 -13.9587
rtoes -25.0272
lfemur -57.3148 5.41183 -16.041
ltibia 36.4226
lfoot -21.8906 8.67467
ltoes -18.3518
422
root 17.0901 15.5981 -13.0549 13.7781 -30.3732 -9.01013
lowerback 18.3847 -2.00397 8.78103
upperback 13.267 -1.78626 -0.424608
thorax 3.94161 -0.430476 -5.14489
lowerneck 6.82461 -0.305023 -1.44018
upperneck -16.6512 0.9094 9.71972
head -6.20765 -0.273678 3.2797
rclavicle -2.90226e-014 4.13472e-014
rhumerus -45.1511 27.5908 -89.5703
rradius 63.9017
rwrist 4.32898
rhand -8.2145 -12.1502
rfingers 7.12502
rthumb 17.7024 -41.3644
lclavicle -2.90226e-014 4.13472e-014
lhumerus 18.5628 -21.1388 64.2493
lradius 73.531
lwrist 83.2306
lhand -40.906 0.959761
lfingers 7.12502
lthumb -13.8411 30.4792
rfemur -27.1389 -4.24037 35.3938
rtibia 67.8395
rfoot -36.1231 -13.5879
rtoes -25.779
lfemur -57.6436 5.51009 -16.1585
ltibia 37.296
lfoot -21.9009 8.47154
ltoes -18.286
423
root 17.0626 15.5957 -12.9764 13.8847 -30.3273 -9.04519
lowerback 18.2771 -2.01376 8.81984
upperback 13.26 -1.80325 -0.392687
thorax 3.98699 -0.435607 -5.13156
lowerneck 6.81163 -0.300985 -1.39957
upperneck -16.6746 0.916174 9.686
head -6.21315 -0.27086 3.26185
rclavicle 1.43125e-014 2.0276e-014
rhumerus -45.2746 27.6403 -89.5758
rradius 63.8353
rwrist 4.29858
rhand -8.19386 -12.1635
rfingers 7.12502
rthumb 17.7223 -41.3759
lclavicle 1.43125e-014 2.0276e-014
lhumerus 18.6019 -21.1358 64.282
lradius 73.4802
lwrist 83.258
lhand -40.8836 1.1242
lfingers 7.12502
lthumb -13.8195 30.6452
rfemur -26.8627 -4.25976 35.2292
rtibia 67.8063
rfoot -36.0625 -13.1821
rtoes -26.56
lfemur -57.9894 5.59002 -16.2659
ltibia 38.1837
lfoot -21.9047 8.24008
ltoes -18.1754
424
root 17.0348 15.592 -12.8962 13.9872 -30.2768 -9.09024
lowerback 18.1703 -2.02596 8.86703
upperback 13.2509 -1.82222 -0.355616
thorax 4.02974 -0.441561 -5.11709
lowerneck 6.80327 -0.298266 -1.3647
upperneck -16.6987 0.919768 9.64785
head -6.21946 -0.268981 3.24381
rclavicle 6.91771e-014 7.95139e-015
rhumerus -45.4052 27.6995 -89.5841
rradius 63.7472
rwrist 4.2766
rhand -8.17619 -12.1749
rfingers 7.12502
rthumb 17.7393 -41.3858
lclavicle 6.91771e-014 7.95139e-015
lhumerus 18.6137 -21.1424 64.3439
lradius 73.4565
lwrist 83.2577
lhand -40.8679 1.25011
lfingers 7.12502
lthumb -13.8043 30.7721
rfemur -26.567 -4.27704 35.0625
rtibia 67.7716
rfoot -36.0088 -12.7585
rtoes -27.3835
lfemur -58.3333 5.6573 -16.3552
ltibia 39.0923
lfoot -21.9114 7.99222
ltoes -18.0224
425
root 17.0065 15.5865 -12.8147 14.099 -30.2187 -9.14987
lowerback 18.0539 -2.04111 8.92465
upperback 13.2389 -1.84453 -0.311398
thorax 4.07386 -0.448781 -5.10047
lowerneck 6.79529 -0.296955 -1.33953
upperneck -16.7229 0.919452 9.60564
head -6.22559 -0.268056 3.22637
rclavicle 2.14687e-014 -3.49861e-014
rhumerus -45.5368 27.7692 -89.5911
rradius 63.6413
rwrist 4.26981
rhand -8.15624 -12.1892
rfingers 7.12502
rthumb 17.7585 -41.3983
lclavicle 2.14687e-014 -3.49861e-014
lhumerus 18.6141 -21.1496 64.4145
lradius 73.4534
lwrist 83.2461
lhand -40.8383 1.43097
lfingers 7.12502
lthumb -13.7758 30.9549
rfemur -26.2645 -4.28823 34.9026
rtibia 67.7358
rfoot -35.977 -12.3002
rtoes -28.157
lfemur -58.6924 5.71431 -16.4241
ltibia 40.0267
lfoot -21.9194 7.73448
ltoes -17.817
426
root 16.9779 15.5792 -12.7321 14.2127 -30.1561 -9.24096
lowerback 17.956 -2.05566 9.00755
upperback 13.2239 -1.86117 -0.257912
thorax 4.10659 -0.452536 -5.08858
lowerneck 6.78603 -0.301435 -1.31287
upperneck -16.7473 0.910223 9.55707
head -6.23099 -0.271018 3.20726
rclavicle -2.22639e-014 3.37934e-014
rhumerus -45.6684 27.8325 -89.5963
rradius 63.5165
rwrist 4.27979
rhand -8.13483 -12.1987
rfingers 7.12502
rthumb 17.7791 -41.4059
lclavicle -2.22639e-014 3.37934e-014
lhumerus 18.6045 -21.1661 64.5006
lradius 73.4663
lwrist 83.2191
lhand -40.8001 1.61232
lfingers 7.12502
lthumb -13.739 31.1387
rfemur -25.937 -4.29165 34.7688
rtibia 67.6934
rfoot -35.961 -11.8399
rtoes -28.9119
lfemur -59.0496 5.76996 -16.4561
ltibia 40.9868
lfoot -21.9268 7.48011
ltoes -17.5798
427
root 16.949 15.5706 -12.6477 14.3268 -30.1001 -9.34358
lowerback 17.8599 -2.06764 9.09796
upperback 13.2066 -1.87353 -0.202235
thorax 4.13675 -0.453927 -5.07917
lowerneck 6.77938 -0.308996 -1.29155
upperneck -16.7731 0.895807 9.50642
head -6.237 -0.276089 3.18881
rclavicle -6.83819e-014 -1.43125e-014
rhumerus -45.7971 27.8966 -89.6022
rradius 63.3784
rwrist 4.30727
rhand -8.10886 -12.2055
rfingers 7.12502
rthumb 17.8041 -41.4104
lclavicle -6.83819e-014 -1.43125e-014
lhumerus 18.5842 -21.1855 64.5941
lradius 73.4944
lwrist 83.1879
lhand -40.7722 1.75121
lfingers 7.12502
lthumb -13.7121 31.2794
rfemur -25.5915 -4.28858 34.641
rtibia 67.6448
rfoot -35.9618 -11.3736
rtoes -29.6183
lfemur -59.4061 5.82965 -16.4749
ltibia 41.9678
lfoot -21.936 7.2509
ltoes -17.3439
428
root 16.9197 15.5605 -12.5621 14.4363 -30.0457 -9.45929
lowerback 17.7804 -2.08061 9.19573
upperback 13.1862 -1.88465 -0.142868
thorax 4.15534 -0.45504 -5.06973
lowerneck 6.7746 -0.316296 -1.28207
upperneck -16.8004 0.881075 9.46045
head -6.24376 -0.281 3.17392
rclavicle -9.93923e-015 -5.1684e-015
rhumerus -45.9229 27.9671 -89.6085
rradius 63.2319
rwrist 4.34482
rhand -8.074 -12.2122
rfingers 7.12502
rthumb 17.8376 -41.4141
lclavicle -9.93923e-015 -5.1684e-015
lhumerus 18.5488 -21.2037 64.6979
lradius 73.5359
lwrist 83.1541
lhand -40.7472 1.85435
lfingers 7.12502
lthumb -13.688 31.3842
rfemur -25.2241 -4.28838 34.5268
rtibia 67.5878
rfoot -35.9783 -10.9086
rtoes -30.2519
lfemur -59.7533 5.89104 -16.4774
ltibia 42.961
lfoot -21.9382 7.06656
ltoes -17.1047
